<svg xmlns="http://www.w3.org/2000/svg" xmlns:xlink="http://www.w3.org/1999/xlink" width="500" zoomAndPan="magnify" viewBox="0 0 375 374.999991" height="500" preserveAspectRatio="xMidYMid meet" version="1.0"><defs><g/><clipPath id="e7e84b0bfe"><rect x="0" width="162" y="0" height="189"/></clipPath></defs><g fill="#000000" fill-opacity="1"><g transform="translate(57.2094, 192.205703)"><g><path d="M 14.78125 9.328125 L 13.671875 4.75 L 1.828125 7.609375 L 1.171875 4.84375 L 13.015625 1.984375 L 11.90625 -2.578125 L 14.359375 -3.15625 L 17.234375 8.75 Z M 14.78125 9.328125 "/></g></g></g><g fill="#000000" fill-opacity="1"><g transform="translate(63.203673, 213.338007)"><g><path d="M 0.5625 1.421875 L 14.234375 -3.984375 L 15.28125 -1.328125 L 1.609375 4.078125 Z M 0.5625 1.421875 "/></g></g></g><g fill="#000000" fill-opacity="1"><g transform="translate(69.125746, 227.213964)"><g><path d="M 7.953125 8.984375 L 5.78125 10.21875 L 0.75 1.328125 L 13.546875 -5.90625 L 18.484375 2.8125 L 16.296875 4.046875 L 12.765625 -2.171875 L 9.6875 -0.4375 L 12.734375 4.9375 L 10.703125 6.09375 L 7.65625 0.71875 L 4.328125 2.59375 Z M 7.953125 8.984375 "/></g></g></g><g fill="#000000" fill-opacity="1"><g transform="translate(80.486319, 245.88806)"><g><path d="M 10.046875 -2.640625 L 2.796875 3.375 L 0.984375 1.171875 L 12.296875 -8.21875 L 13.703125 -6.5 L 11.171875 5.5625 L 18.5625 -0.59375 L 20.390625 1.59375 L 9.109375 10.96875 L 7.640625 9.203125 Z M 10.046875 -2.640625 "/></g></g></g><g fill="#000000" fill-opacity="1"><g transform="translate(97.329911, 264.714043)"><g><path d="M 1.1875 0.96875 L 10.546875 -10.359375 L 14.65625 -6.953125 C 15.582031 -6.191406 16.269531 -5.375 16.71875 -4.5 C 17.175781 -3.625 17.425781 -2.738281 17.46875 -1.84375 C 17.507812 -0.945312 17.363281 -0.0546875 17.03125 0.828125 C 16.707031 1.710938 16.226562 2.539062 15.59375 3.3125 C 14.875 4.175781 14.097656 4.847656 13.265625 5.328125 C 12.429688 5.804688 11.5625 6.09375 10.65625 6.1875 C 9.757812 6.28125 8.851562 6.175781 7.9375 5.875 C 7.03125 5.582031 6.148438 5.082031 5.296875 4.375 Z M 13.359375 1.46875 C 13.796875 0.925781 14.128906 0.367188 14.359375 -0.203125 C 14.597656 -0.785156 14.707031 -1.359375 14.6875 -1.921875 C 14.675781 -2.492188 14.535156 -3.039062 14.265625 -3.5625 C 13.992188 -4.09375 13.59375 -4.578125 13.0625 -5.015625 L 11.15625 -6.59375 L 4.984375 0.875 L 6.890625 2.453125 C 7.429688 2.898438 7.988281 3.203125 8.5625 3.359375 C 9.144531 3.515625 9.710938 3.539062 10.265625 3.4375 C 10.828125 3.332031 11.367188 3.113281 11.890625 2.78125 C 12.421875 2.445312 12.910156 2.007812 13.359375 1.46875 Z M 13.359375 1.46875 "/></g></g></g><g fill="#000000" fill-opacity="1"><g transform="translate(116.569484, 279.458529)"><g><path d="M 12.171875 -10.03125 L 14.375 -8.796875 L 12.0625 6.765625 L 9.5 5.328125 L 10.09375 1.453125 L 5.625 -1.0625 L 2.65625 1.484375 L 0.09375 0.046875 Z M 10.625 -0.546875 L 11.6875 -6.578125 L 7 -2.578125 Z M 10.625 -0.546875 "/></g></g></g><g fill="#000000" fill-opacity="1"><g transform="translate(137.142076, 289.884948)"><g/></g></g><g fill="#000000" fill-opacity="1"><g transform="translate(150.479891, 294.741616)"><g><path d="M 16.796875 -11.265625 L 13.546875 3.078125 L 10.78125 2.453125 L 12.171875 -3.65625 L 5.671875 -5.140625 L 4.28125 0.96875 L 1.5 0.34375 L 4.75 -14 L 7.53125 -13.375 L 6.21875 -7.5625 L 12.71875 -6.078125 L 14.03125 -11.890625 Z M 16.796875 -11.265625 "/></g></g></g><g fill="#000000" fill-opacity="1"><g transform="translate(174.947445, 299.384821)"><g><path d="M 7.8125 0.375 C 6.726562 0.332031 5.753906 0.0859375 4.890625 -0.359375 C 4.035156 -0.804688 3.300781 -1.390625 2.6875 -2.109375 C 2.082031 -2.828125 1.625 -3.640625 1.3125 -4.546875 C 1 -5.460938 0.859375 -6.390625 0.890625 -7.328125 C 0.921875 -8.304688 1.132812 -9.238281 1.53125 -10.125 C 1.925781 -11.007812 2.457031 -11.78125 3.125 -12.4375 C 3.800781 -13.101562 4.582031 -13.625 5.46875 -14 C 6.363281 -14.375 7.328125 -14.546875 8.359375 -14.515625 C 9.429688 -14.472656 10.394531 -14.222656 11.25 -13.765625 C 12.113281 -13.304688 12.84375 -12.71875 13.4375 -12 C 14.03125 -11.28125 14.484375 -10.460938 14.796875 -9.546875 C 15.109375 -8.628906 15.25 -7.710938 15.21875 -6.796875 C 15.1875 -5.816406 14.972656 -4.890625 14.578125 -4.015625 C 14.191406 -3.140625 13.671875 -2.367188 13.015625 -1.703125 C 12.359375 -1.046875 11.582031 -0.523438 10.6875 -0.140625 C 9.800781 0.234375 8.84375 0.40625 7.8125 0.375 Z M 3.796875 -7.21875 C 3.773438 -6.582031 3.847656 -5.960938 4.015625 -5.359375 C 4.191406 -4.765625 4.453125 -4.234375 4.796875 -3.765625 C 5.148438 -3.304688 5.585938 -2.925781 6.109375 -2.625 C 6.628906 -2.332031 7.226562 -2.175781 7.90625 -2.15625 C 8.59375 -2.132812 9.207031 -2.253906 9.75 -2.515625 C 10.289062 -2.773438 10.75 -3.132812 11.125 -3.59375 C 11.507812 -4.050781 11.804688 -4.570312 12.015625 -5.15625 C 12.222656 -5.738281 12.335938 -6.332031 12.359375 -6.9375 C 12.378906 -7.570312 12.300781 -8.1875 12.125 -8.78125 C 11.945312 -9.382812 11.679688 -9.921875 11.328125 -10.390625 C 10.972656 -10.859375 10.535156 -11.234375 10.015625 -11.515625 C 9.492188 -11.804688 8.90625 -11.960938 8.25 -11.984375 C 7.5625 -12.003906 6.941406 -11.882812 6.390625 -11.625 C 5.835938 -11.363281 5.375 -11.003906 5 -10.546875 C 4.625 -10.097656 4.332031 -9.582031 4.125 -9 C 3.925781 -8.425781 3.816406 -7.832031 3.796875 -7.21875 Z M 3.796875 -7.21875 "/></g></g></g><g fill="#000000" fill-opacity="1"><g transform="translate(200.002164, 299.269202)"><g><path d="M 10.640625 -13.875 L 5.984375 -13.1875 L 7.75 -1.125 L 4.9375 -0.71875 L 3.171875 -12.78125 L -1.46875 -12.109375 L -1.828125 -14.59375 L 10.28125 -16.359375 Z M 10.640625 -13.875 "/></g></g></g><g fill="#000000" fill-opacity="1"><g transform="translate(221.56785, 295.225017)"><g/></g></g><g fill="#000000" fill-opacity="1"><g transform="translate(235.366239, 291.150302)"><g><path d="M -0.484375 -16.0625 L 1.875 -17.21875 L 5.5 -13.578125 L 4.859375 -18.671875 L 7.25 -19.828125 L 7.921875 -12.734375 L 11.640625 -9.3125 L 10.390625 -21.421875 L 13.1875 -22.78125 L 14.25 -6.9375 L 12.078125 -5.890625 L 7.09375 -10.3125 L 7.5 -3.65625 L 5.34375 -2.59375 L -6.4375 -13.21875 L -3.6875 -14.5625 L 5.078125 -6.109375 L 4.65625 -11.140625 Z M -0.484375 -16.0625 "/></g></g></g><g fill="#000000" fill-opacity="1"><g transform="translate(262.985182, 276.175547)"><g><path d="M 1.828125 -20.140625 L 10.921875 -8.59375 L 8.6875 -6.84375 L 4.8125 -11.765625 L -0.421875 -7.640625 L 3.453125 -2.71875 L 1.203125 -0.953125 L -7.890625 -12.5 L -5.640625 -14.265625 L -1.953125 -9.59375 L 3.28125 -13.71875 L -0.40625 -18.390625 Z M 1.828125 -20.140625 "/></g></g></g><g fill="#000000" fill-opacity="1"><g transform="translate(281.874533, 260.08885)"><g><path d="M 5.9375 -10.421875 L 7.796875 -8.765625 L 1.015625 -1.140625 L -9.96875 -10.921875 L -3.3125 -18.40625 L -1.421875 -16.734375 L -6.171875 -11.390625 L -3.546875 -9.03125 L 0.5625 -13.65625 L 2.3125 -12.109375 L -1.796875 -7.484375 L 1.0625 -4.9375 Z M 5.9375 -10.421875 "/></g></g></g><g fill="#000000" fill-opacity="1"><g transform="translate(295.76598, 243.337829)"><g><path d="M 4.15625 -11.25 L 6.265625 -9.921875 L 0.8125 -1.296875 L -11.625 -9.140625 L -6.28125 -17.609375 L -4.15625 -16.265625 L -7.96875 -10.21875 L -4.96875 -8.34375 L -1.671875 -13.5625 L 0.296875 -12.3125 L -3 -7.09375 L 0.234375 -5.046875 Z M 4.15625 -11.25 "/></g></g></g><g fill="#000000" fill-opacity="1"><g transform="translate(306.714047, 224.542188)"><g><path d="M 0.59375 -1.40625 L -12.953125 -7.125 L -11.84375 -9.765625 L -0.59375 -5.015625 L 2.328125 -11.921875 L 4.625 -10.953125 Z M 0.59375 -1.40625 "/></g></g></g><g fill="#000000" fill-opacity="1"><g transform="translate(314.35992, 204.544758)"><g><path d="M -8.140625 -12.546875 C -8.265625 -12.460938 -8.4375 -12.316406 -8.65625 -12.109375 C -8.875 -11.898438 -9.101562 -11.632812 -9.34375 -11.3125 C -9.582031 -11 -9.800781 -10.648438 -10 -10.265625 C -10.207031 -9.878906 -10.363281 -9.46875 -10.46875 -9.03125 C -10.65625 -8.269531 -10.648438 -7.664062 -10.453125 -7.21875 C -10.265625 -6.78125 -9.914062 -6.5 -9.40625 -6.375 C -9.113281 -6.300781 -8.851562 -6.3125 -8.625 -6.40625 C -8.394531 -6.5 -8.171875 -6.660156 -7.953125 -6.890625 C -7.742188 -7.128906 -7.53125 -7.4375 -7.3125 -7.8125 C -7.101562 -8.1875 -6.863281 -8.628906 -6.59375 -9.140625 C -6.238281 -9.796875 -5.882812 -10.378906 -5.53125 -10.890625 C -5.1875 -11.410156 -4.804688 -11.832031 -4.390625 -12.15625 C -3.972656 -12.476562 -3.515625 -12.691406 -3.015625 -12.796875 C -2.515625 -12.898438 -1.9375 -12.875 -1.28125 -12.71875 C -0.507812 -12.53125 0.109375 -12.222656 0.578125 -11.796875 C 1.054688 -11.378906 1.40625 -10.890625 1.625 -10.328125 C 1.851562 -9.765625 1.96875 -9.140625 1.96875 -8.453125 C 1.96875 -7.773438 1.882812 -7.085938 1.71875 -6.390625 C 1.457031 -5.316406 1.035156 -4.296875 0.453125 -3.328125 C -0.117188 -2.359375 -0.796875 -1.53125 -1.578125 -0.84375 L -3.6875 -2.65625 C -3.539062 -2.75 -3.332031 -2.925781 -3.0625 -3.1875 C -2.789062 -3.457031 -2.503906 -3.785156 -2.203125 -4.171875 C -1.898438 -4.554688 -1.617188 -4.992188 -1.359375 -5.484375 C -1.109375 -5.972656 -0.914062 -6.492188 -0.78125 -7.046875 C -0.414062 -8.578125 -0.71875 -9.457031 -1.6875 -9.6875 C -2 -9.769531 -2.28125 -9.742188 -2.53125 -9.609375 C -2.789062 -9.484375 -3.039062 -9.28125 -3.28125 -9 C -3.519531 -8.726562 -3.757812 -8.378906 -4 -7.953125 C -4.25 -7.523438 -4.519531 -7.050781 -4.8125 -6.53125 C -5.164062 -5.882812 -5.515625 -5.332031 -5.859375 -4.875 C -6.203125 -4.425781 -6.5625 -4.070312 -6.9375 -3.8125 C -7.320312 -3.550781 -7.734375 -3.382812 -8.171875 -3.3125 C -8.609375 -3.25 -9.101562 -3.28125 -9.65625 -3.40625 C -10.375 -3.582031 -10.984375 -3.875 -11.484375 -4.28125 C -11.992188 -4.6875 -12.378906 -5.171875 -12.640625 -5.734375 C -12.898438 -6.296875 -13.050781 -6.914062 -13.09375 -7.59375 C -13.132812 -8.269531 -13.066406 -8.972656 -12.890625 -9.703125 C -12.648438 -10.703125 -12.269531 -11.585938 -11.75 -12.359375 C -11.238281 -13.128906 -10.691406 -13.78125 -10.109375 -14.3125 Z M -8.140625 -12.546875 "/></g></g></g><g transform="matrix(1, 0, 0, 1, 102, 93)"><g clip-path="url(#e7e84b0bfe)"><g fill="#000000" fill-opacity="1"><g transform="translate(1.064487, 147.448658)"><g><path d="M 43.53125 0 L 32.0625 0 L 32.0625 -88.015625 L 1.203125 -88.015625 L 1.203125 -98.078125 L 74.265625 -98.078125 L 74.265625 -88.015625 L 43.53125 -88.015625 Z M 43.53125 0 "/></g></g></g><g fill="#000000" fill-opacity="1"><g transform="translate(68.630101, 147.448658)"><g><path d="M 87.75 0 L 76.34375 0 L 76.34375 -46.21875 L 24.828125 -46.21875 L 24.828125 0 L 13.421875 0 L 13.421875 -98.078125 L 24.828125 -98.078125 L 24.828125 -56.28125 L 76.34375 -56.28125 L 76.34375 -98.078125 L 87.75 -98.078125 Z M 87.75 0 "/></g></g></g></g></g></svg>